<?xml version="1.0" encoding="UTF-8" standalone="no"?>
<svg xmlns:rdf="http://www.w3.org/1999/02/22-rdf-syntax-ns#" xmlns="http://www.w3.org/2000/svg" height="338.67" width="370.45" version="1.1" xmlns:cc="http://creativecommons.org/ns#" xmlns:dc="http://purl.org/dc/elements/1.1/">
 <metadata>
  <rdf:RDF>
   <cc:Work rdf:about="">
    <dc:format>image/svg+xml</dc:format>
    <dc:type rdf:resource="http://purl.org/dc/dcmitype/StillImage"/>
    <dc:title>Perl 5 Raptor</dc:title>
   </cc:Work>
  </rdf:RDF>
 </metadata>
 <title>Perl 5 Raptor</title>
 <description>Copyright (C) 2012, Sebastian Riedel.</description>
 <g fill="none" transform="translate(-25.586 -24.327)">
  <path fill="#000" d="m273 205c-8 8-7 9-11 18-4 8-5 8-4 15 0 4 2 3 6 7 2 1 3 2 4 3 2 3 1 3 3 5 2 4 3 2 5 6 2 5 2 6 1 12 0 4-3 6-3 10-1 10-2 18-2 19 0 8 0 8-1 16 0 8-1 8-3 15-1 3-2 2-3 5s0 2-1 5c-1 2-2 3-3 4h-2c-2 1-2 0-4 1s-3 0-4 2c-2 2-2 7-2 7s-1-3-2-5c0-1-1-2 0-5 0-3 1-3 2-6 1-2 3-4 3-4-4 2-4 3-9 5-3 1-3 1-6 0-2-1-2-2-2-2s-3-1-5-1c-3 1-7 6-7 6s0-5 2-8c1-4 1-4 4-6s4 0 7-2c5-3 9-8 9-8s-3-1-5-2c-3-2-3-2-5-5-1-2-1-3-1-5 1-2 3-4 3-4s2-2 2-4c1-2 1-3 0-5-1-1-2-1-5-1-2 0-2-1-4 0-3 2-6 5-6 5s0-4 2-6c3-5 3-5 8-7 4-2 5-2 9-2 4 1 5 2 8 5 2 1 3 11 3 11s1-11 3-16c1-4 0-9 0-9s-4 2-8 1c-6-1-7-1-13-5-5-5-5-5-8-12-2-4-1-6-3-10-1-4-4-4-6-7-3-5-6-10-6-10v12 10c-1 5-2 6-2 11 0 6 1 5 3 10 2 6 4 3 5 10 0 3-2 9-2 9s-1 5-2 11c-1 8 0 9-1 17l-4 14s-1 6-5 10c-5 5-5 6-13 8-3 1-3 0-5 0-2 1-2 1-3 1-1 1-2 0-4 1s-2 1-4 3c-2 1-5 5-5 5s0-3 1-7 6-7 6-7h-4c-2 1-2 1-4 1-3 1-3 0-6 0-3 1-6 5-6 5s0-4 2-7 3-3 6-5c3-1 4 1 6-1 7-4 7-5 13-10 4-4 1-3 0-6-1-2-1-2-1-4 0-1 3-3 1-3-4 1-6 1-7 4-2 3 1 9 1 9s-6-2-7-5c-1-4-2-7-1-10 2-4 4-8 8-10 5-2 9 4 12 2 4-3 3-3 4-8 1-10 3-10 1-20-3-9-5-9-10-18-3-7-3-7-5-14s2-9-1-14c-2-3-5-4-9-3-3 1-4 3-5 6 0 5 2 5 3 10 2 6 1 6 2 12 0 4 1 4 1 7-1 3-1 3-2 5-2 5 0 5-2 9s-5 6-5 6 1-7 0-15c0-2-1-1-2-4-1-4 0-5-1-9l-2-18s-2 13-3 27c0 3 1 3 1 6 0 2-1 2-2 5v11l2 10s-3-2-5-5c-2-4-3-4-5-9-1-3-1-3-1-7 0-5 1-5 1-10 1-11 1-22 1-22l-8 15s0 3-1 5c-2 3-4 2-5 4-2 2-1 3 0 6 2 3 6 6 6 6s-6-1-10-4c-3-3-3-4-4-9-1-2-1-3 1-6 7-14 8-13 17-27 6-9 9-18 12-19 2-2 24 1 24-2-1-3-31-24-33-25-3-1-4 6-7 12-2 4 0 5-3 7-4 2-6 3-11 1-15-7-13-12-28-19-4-1-7 0-9 2-5 5-7 13-5 13 1 1 2-1 4 0 2 0 4-1 6-1 5-1 8 2 8 2s-4 0-7 2c-3 1-4 2-5 4s-3 1-4 2c0 0-1 1 0 2s2-1 4-1c1 0 4-1 7-2 4-2 4-2 8-5 2-2 5-4 5-4s0 4-2 7c-3 5-4 6-7 8-5 4-8 3-8 4-1 2-1 1-2 2 0 1 0 2 1 2 1-1 4-1 5-1 1 1 3 0 5-1 5-3 8-8 8-8s-1 8-5 11-5 3-6 3l-2 2c-2 1-2 1-5 1-2-1-7-4-12-7-6-4-5-5-8-9-5-6-8-8-7-14s4-14 13-23c6-5 10-8 18-6 16 3 28 17 30 17 1-1 8-21 8-32s-1-17-5-30c-4-16-8-31-10-32s-9-1-19-3c-14-1-16-2-30-3-16-1-27 1-32 0-4-1-4-2-5-3s-2-4-1-4 2-1 2-1l-2-12 6 11h1l-3-15 6 14h2l-2-16 6 15 3-1-2-11 5 10h3l-1-11 4 10h3l-3-13 6 12 2-1-1-8 5 6 2-1-2-9 6 7h1l-1-8 3 7 2-1v-4l2 4h1v-8l3 7h2v-5l3 4h2l2-5 2 4s2 0 7-1c6-2 12-5 12-5l-21-4-3 5-1-6-2-1-3 5-1-5-2-1-3 6-1-7h-2l-2 6-2-7h-2l-1 9-2-10h-1l-2 9-2-9h-1l-1 12-2-12h-1l-1 9-1-9h-2l-2 12-1-12h-1l-2 6-1-7h-2l-2 10v-11h-2l-1 9-1-9-1-1-2 14-1-14h-1l-3 12-1-13s0 1-4-3c-5-3-1-8 1-12 3-5 5-4 11-5 23-2 22 0 45-1 9-1 10-4 18-2 7 1 8 2 14 5 8 3 9 2 16 5 8 3 9 3 16 8 6 4 7 4 11 11 5 9 5 9 7 20 4 19 4 35 4 40s1 4 5 6c6 3 6 2 13 3 10 1 11 0 21 2 8 2 9 1 16 4s13 9 13 9 7 2 14 6c4 2 4 3 8 5 5 1 11 1 11 1s14 0 29-2 15-1 31-4c10-3 19-7 19-7s9-5 7-10-9-5-13-10c-3-3-4-6-4-9-1-3 0-7 4-11 3-5 7-8 16-8 13-2 20-2 28 3s7 10 7 10-6-6-14-7c-10-1-14-2-21 2-6 3-7 6-5 12 2 5 9 5 12 6 3 2 9 4 11 12s-4 18-4 18-6 10-33 23c-28 12-24 9-46 21-12 7-13 7-23 16m-172-168c2 0 4-1 4-3s-2-3-4-3c-3 0-6 1-6 3s3 3 6 3"/>
 </g>
</svg>
